<svg width="24" height="24" viewBox="0 0 24 24" fill="none" xmlns="http://www.w3.org/2000/svg">
<ellipse cx="12.0358" cy="8.00001" rx="7.16768" ry="7.74194" fill="#F7F7F7"/>
<g filter="url(#filter0_d)">
<path fill-rule="evenodd" clip-rule="evenodd" d="M19.1988 10.5806H18.6723C17.6757 13.4622 15.0586 15.5 12.0191 15.5C8.9795 15.5 6.36243 13.4622 5.36586 10.5806H4.83936C5.85696 13.7327 8.68703 16 12.0191 16C15.3511 16 18.1812 13.7327 19.1988 10.5806ZM5.31426 5.41935H5.36586C5.36969 5.40826 5.37355 5.39719 5.37743 5.38612C5.35622 5.39693 5.33516 5.40801 5.31426 5.41935ZM18.7235 5.41935H18.6723C18.6685 5.40833 18.6646 5.39732 18.6608 5.38632C18.6819 5.39707 18.7028 5.40808 18.7235 5.41935ZM19.1988 5.41935H18.9219C18.8226 5.35722 18.7191 5.30106 18.612 5.25138C17.5732 2.45893 14.9992 0.5 12.0191 0.5C9.03897 0.5 6.46499 2.45885 5.4262 5.2512C5.31896 5.30092 5.21535 5.35714 5.11587 5.41935H4.83936C5.85696 2.26732 8.68704 0 12.0191 0C15.3511 0 18.1812 2.26732 19.1988 5.41935Z" fill="#171515"/>
</g>
<path d="M19.8626 10.8387C19.8626 8.63101 20.1718 5.7688 19.8626 5.18549C19.5534 4.60219 15.2784 4.563 12.3242 4.51616C9.11735 4.46532 4.41161 4.73477 4.12665 5.03407C3.84169 5.33336 4.12665 10.8387 4.12665 10.8387C4.12665 10.8387 8.85802 10.0708 11.9122 10.0646C15.0305 10.0582 19.8626 10.8387 19.8626 10.8387Z" fill="white" stroke="#101010" stroke-width="0.5"/>
<path d="M10.4396 9.90797L10.3446 9.90133L10.3333 9.9959C10.2615 10.5989 10.1491 11.009 10.005 11.2417C9.87095 11.4554 9.6969 11.5542 9.47654 11.5542C9.2529 11.5542 9.01607 11.4984 8.76519 11.383C8.78082 9.25445 8.98468 6.61147 9.37735 3.45319L9.39132 3.34085H9.27811H6.68047H6.58705L6.5807 3.43406C6.49632 4.67342 6.4542 6.15825 6.4542 7.88816C6.4542 9.61882 6.5114 11.2929 6.62582 12.9103L6.6324 13.0032H6.72557H11.1542H11.236L11.2522 12.923C11.4036 12.1733 11.5243 11.2291 11.6147 10.0913L11.6226 9.99072L11.5219 9.98367L10.4396 9.90797Z" fill="white" stroke="black" stroke-width="0.2"/>
<path d="M17.1297 6.64199C17.1159 6.70786 17.1015 6.76891 17.0865 6.82511L17.0649 6.9058L16.9816 6.89893L16.717 6.8771L16.6073 6.86805L16.6268 6.75973C16.6328 6.72667 16.6357 6.69378 16.6357 6.66101C16.6357 6.57878 16.6172 6.5374 16.5989 6.51725C16.5971 6.51533 16.5953 6.51347 16.5935 6.51168C16.5574 6.83871 16.5397 7.10773 16.5397 7.31959C16.5397 7.56035 16.5466 7.77246 16.5604 7.95616L16.5684 8.06362H16.4606H15.8895H15.8037L15.7907 7.97883C15.7304 7.58748 15.7004 7.16754 15.7004 6.71922C15.7004 6.68621 15.7008 6.64622 15.7014 6.5993C15.6697 6.65288 15.6459 6.72325 15.6321 6.8143L15.618 6.90676L15.5248 6.89892L15.2655 6.87709L15.1592 6.86815L15.1749 6.76271L15.2692 6.1296L15.2819 6.04433H15.3682H17.1092H17.1104H17.2101H17.2243H17.9751H18.0927L18.0738 6.16038C18.0381 6.3801 18.0201 6.61484 18.0201 6.86477C18.0201 6.93373 18.0224 7.00568 18.027 7.08065C18.0317 7.05609 18.0358 7.03464 18.0395 7.0163C18.0536 6.94507 18.0747 6.84493 18.1027 6.71618L18.103 6.71491C18.1329 6.58543 18.1602 6.48492 18.1849 6.4161L18.1853 6.41499C18.2106 6.34745 18.241 6.27298 18.2764 6.19166L18.2765 6.19143C18.3455 6.03455 18.442 5.91549 18.5727 5.85092L18.5791 5.84776L18.5792 5.848C18.6223 5.83036 18.6947 5.81709 18.7832 5.80524C18.8659 5.79184 18.9083 5.77073 18.9271 5.75366L19.1997 5.50675L19.0897 5.85769C19.0415 6.01115 18.991 6.14429 18.9379 6.25634L18.9194 6.29517L18.8786 6.30852C18.8141 6.32959 18.7531 6.34257 18.6982 6.34257C18.6777 6.34257 18.6574 6.34174 18.6374 6.34007C18.6006 6.41316 18.5653 6.50588 18.5322 6.61976C18.4893 6.76768 18.457 6.89895 18.435 7.01384C18.4143 7.13152 18.3909 7.27596 18.3648 7.44733C18.3648 7.44736 18.3648 7.44739 18.3648 7.44742L18.2659 7.43238C18.1332 8.31049 18.0004 8.9339 17.8677 9.30261L17.1297 6.64199ZM17.1297 6.64199C17.1603 7.08241 17.2262 7.5302 17.3273 7.98531L17.3447 8.06362H17.4249H17.8448L17.1297 6.64199ZM18.0564 7.3859C18.0586 7.40286 18.0608 7.41996 18.0632 7.43717C18.0661 7.42153 18.069 7.40538 18.0721 7.38872M18.0564 7.3859L18.279 6.44997C18.2563 6.51304 18.2301 6.60885 18.2004 6.73742C18.1725 6.86598 18.1515 6.96543 18.1375 7.03578C18.1236 7.10613 18.1017 7.22377 18.0721 7.38872M18.0564 7.3859L18.0721 7.38872M18.0564 7.3859L18.0564 7.38586L18.0721 7.38872M9.38135 8.0017L9.3969 8.02937L9.42557 8.04301C9.5633 8.10851 9.69851 8.14366 9.83006 8.14366C10.1303 8.14366 10.3839 8.00853 10.5869 7.75292C10.7887 7.49887 10.8889 7.20009 10.8889 6.86113C10.8889 6.59137 10.8215 6.33782 10.6872 6.10211L10.6704 6.07271L10.6393 6.05952C10.4846 5.99404 10.3273 5.96064 10.168 5.96064C9.86731 5.96064 9.61593 6.07333 9.4218 6.29712C9.22987 6.51836 9.13535 6.7885 9.13535 7.10127C9.13535 7.41104 9.21827 7.71159 9.38135 8.0017ZM10.0895 7.62891C10.0407 7.57223 9.99718 7.49729 9.96043 7.40106C9.90386 7.24593 9.87504 7.07595 9.87504 6.89024C9.87504 6.76551 9.88804 6.65379 9.91309 6.55436C9.96712 6.61684 10.0136 6.6946 10.0517 6.7893L10.0517 6.7893L10.052 6.79014C10.1148 6.94211 10.1466 7.10733 10.1466 7.28684C10.1466 7.41375 10.1272 7.52739 10.0895 7.62891ZM12.6308 6.30852L12.6717 6.29517L12.6901 6.25634C12.705 6.22493 12.7197 6.19187 12.7342 6.15717L12.7587 6.19685C12.8022 6.26726 12.844 6.34423 12.8842 6.42787C12.8365 6.54012 12.7647 6.64686 12.667 6.74803L12.6665 6.74857C12.5588 6.86188 12.4498 6.93863 12.3399 6.98312L12.2906 7.00308L12.2796 7.05509C12.2433 7.22669 12.2251 7.39859 12.2251 7.57065C12.2251 7.73508 12.2312 7.87062 12.2442 7.97582L12.2549 8.06362H12.3434H12.9538H12.9946L13.0238 8.03506C13.1045 7.956 13.1805 7.8736 13.2518 7.78784C13.2578 7.84911 13.2623 7.90938 13.2653 7.96866L13.2701 8.06362H13.3651H13.973H14.073V7.96362V7.93451C14.073 7.93212 14.073 7.92974 14.073 7.92736C14.0745 7.94301 14.0762 7.95864 14.0778 7.97424L14.0874 8.06362H14.1773H15.4636H15.5377L15.5593 7.9928C15.6052 7.84209 15.6411 7.6551 15.6677 7.43338L15.6805 7.32655L15.573 7.32158L15.2587 7.30702L15.1711 7.30297L15.1556 7.3892C15.1358 7.49925 15.1071 7.55845 15.0817 7.58578C15.0603 7.60818 15.0292 7.62347 14.9763 7.62347C14.9338 7.62347 14.889 7.61838 14.8418 7.60776C14.8514 7.21666 14.9094 6.73539 15.017 6.16279L15.0392 6.04433H14.9187H14.1642H14.0739L14.0647 6.1341C14.0398 6.37624 14.0275 6.66486 14.0275 6.99939C14.0275 7.04365 14.0278 7.08772 14.0284 7.13161C13.9858 6.76658 13.9126 6.4269 13.8085 6.11286L13.7858 6.04433H13.7136H12.8438H12.7785C12.8001 5.98592 12.8212 5.92368 12.8419 5.85769L12.952 5.50675L12.6794 5.75366C12.6605 5.77073 12.6182 5.79184 12.5354 5.80524C12.447 5.81709 12.3746 5.83036 12.3314 5.848L12.3313 5.84776L12.3249 5.85092C12.1943 5.91549 12.0977 6.03455 12.0288 6.19143L12.0287 6.19166C11.9932 6.27298 11.9628 6.34745 11.9376 6.41499L11.9376 6.41499L11.9372 6.4161C11.9124 6.48492 11.8851 6.58543 11.8552 6.71491L11.8552 6.71491L11.855 6.71618C11.827 6.84493 11.8059 6.94507 11.7917 7.0163C11.7881 7.03464 11.7839 7.05609 11.7792 7.08065C11.7746 7.00568 11.7724 6.93373 11.7724 6.86477C11.7724 6.61484 11.7903 6.3801 11.8261 6.16038L11.8449 6.04433H11.7274H10.9624H10.8615L10.8624 6.14522C10.8677 6.74459 10.9402 7.358 11.0796 7.98531L11.097 8.06362H11.1772H11.5971C11.4933 8.55717 11.3617 8.99219 11.2029 9.36932L11.1241 9.55644L11.3205 9.50485C11.4525 9.47015 11.5655 9.43363 11.6584 9.39492L11.6991 9.37796L11.714 9.33648C11.8504 8.95779 11.9842 8.32592 12.117 7.44742C12.1431 7.27601 12.1665 7.13153 12.1873 7.01382C12.2092 6.89894 12.2416 6.76767 12.2845 6.61976C12.3176 6.50588 12.3528 6.41316 12.3896 6.34007C12.4096 6.34174 12.4299 6.34257 12.4505 6.34257C12.5053 6.34257 12.5664 6.32959 12.6308 6.30852ZM13.1668 7.2484C13.137 7.29154 13.1051 7.33188 13.0711 7.36948C13.0818 7.26316 13.0969 7.15445 13.1162 7.04334C13.1346 7.11032 13.1514 7.17867 13.1668 7.2484Z" stroke="black" stroke-width="0.2"/>
<defs>
<filter id="filter0_d" x="0.839355" y="0" width="22.3594" height="24" filterUnits="userSpaceOnUse" color-interpolation-filters="sRGB">
<feFlood flood-opacity="0" result="BackgroundImageFix"/>
<feColorMatrix in="SourceAlpha" type="matrix" values="0 0 0 0 0 0 0 0 0 0 0 0 0 0 0 0 0 0 127 0"/>
<feOffset dy="4"/>
<feGaussianBlur stdDeviation="2"/>
<feColorMatrix type="matrix" values="0 0 0 0 0 0 0 0 0 0 0 0 0 0 0 0 0 0 0.25 0"/>
<feBlend mode="normal" in2="BackgroundImageFix" result="effect1_dropShadow"/>
<feBlend mode="normal" in="SourceGraphic" in2="effect1_dropShadow" result="shape"/>
</filter>
</defs>
</svg>
