<svg width="192" height="192" viewBox="0 0 192 192" fill="none" xmlns="http://www.w3.org/2000/svg">
<g clip-path="url(#clip0)">
<path d="M8 153.727C8 161.099 9.04845 168.075 12.171 174.314C15.7761 181.518 21.2509 181.533 27.2878 181.533C37.047 181.533 45.0037 167.052 50.6313 158.302C58.6717 145.8 63.553 130.628 67.8221 115.523C71.3471 103.05 74.2084 90.8798 76.4635 77.9425C78.8387 64.3164 81.0981 50.2775 85.9807 37.6885C88.3806 31.5007 90.1371 24.5915 92.1104 18.1409C92.622 16.4683 93.4301 11.4864 95.1061 11.4864" stroke="black" stroke-width="5" stroke-linecap="round" stroke-linejoin="round"/>
<path d="M131.607 19.5074C131.607 23.0963 131.744 26.7668 131.285 30.321C130.611 35.5273 128.683 40.2203 127.044 44.9966C121.817 60.2335 114.61 74.2436 108.771 89.1126C104.885 99.0077 100.923 109.01 97.6404 119.266C92.447 135.493 86.8457 151.334 85.2428 168.937C84.7638 174.197 83.3059 182.562 88.3306 184.742C92.2404 186.438 96.7322 186.37 100.797 186.584C111.055 187.122 121.533 187.434 131.722 185.603C139.247 184.251 147.125 182.38 154.282 178.978C156.045 178.141 158.055 177.016 159.122 174.908C160.527 172.13 158.927 171.344 156.909 170.304" stroke="black" stroke-width="5" stroke-linecap="round" stroke-linejoin="round"/>
<path d="M38.5049 18.4379C38.2802 16.8085 37.9064 14.8688 38.1823 13.2094C38.9735 8.44931 44.9216 7.38342 47.7916 6.85194C55.6356 5.39934 63.7667 5.69347 71.6651 5.63392C85.8979 5.52662 100.132 5.60422 114.366 5.60422C138.589 5.60422 162.79 4 187 4" stroke="black" stroke-width="5" stroke-linecap="round" stroke-linejoin="round"/>
<rect width="192" height="192" stroke="black" stroke-width="0.75"/>
</g>
<defs>
<clipPath id="clip0">
<rect width="192" height="192" fill="white"/>
</clipPath>
</defs>
</svg>
