<svg width="196" height="200" viewBox="0 0 196 200" fill="none" xmlns="http://www.w3.org/2000/svg">
<ellipse cx="98.4301" cy="96.0001" rx="86.0122" ry="92.9032" fill="#F7F7F7"/>
<g filter="url(#filter0_d)">
<path fill-rule="evenodd" clip-rule="evenodd" d="M98.2273 188C135.507 188 167.505 163.119 179.821 128H184.044C171.553 165.286 137.847 192 98.2273 192C58.6076 192 24.9019 165.286 12.4103 128H16.6332C28.9492 163.119 60.9479 188 98.2273 188ZM16.278 126.968C16.2816 126.978 16.2852 126.989 16.2888 127H12.0812C12.0777 126.989 12.0743 126.978 12.0708 126.968H16.278ZM180.177 126.968C180.173 126.978 180.169 126.989 180.166 127H184.373C184.377 126.989 184.38 126.978 184.384 126.968H180.177ZM184.384 65.0322H180.177C179.703 63.6288 179.197 62.2414 178.662 60.8708H182.937C183.449 62.2428 183.931 63.6302 184.384 65.0322ZM16.278 65.0322C16.752 63.6288 17.2574 62.2414 17.7931 60.8708H13.5175C13.006 62.2428 12.5235 63.6302 12.0708 65.0322H16.278ZM98.2273 0C60.0861 0 27.4258 24.7573 13.8966 59.8708H18.1906C31.4956 26.9462 62.4264 4 98.2273 4C134.028 4 164.959 26.9462 178.264 59.8708H182.558C169.029 24.7573 136.369 0 98.2273 0Z" fill="#171515"/>
</g>
<path d="M192.351 130.065C192.351 103.572 196.061 69.2256 192.351 62.2259C188.641 55.2262 137.341 54.756 101.89 54.1939C63.4082 53.5839 6.93933 56.8173 3.51979 60.4088C0.100258 64.0003 3.51979 130.065 3.51979 130.065C3.51979 130.065 60.2963 120.849 96.9468 120.775C134.366 120.698 192.351 130.065 192.351 130.065Z" fill="white" stroke="#101010" stroke-width="4"/>
<path d="M79.2961 118.596L77.871 118.497L77.702 119.915C76.8407 127.144 75.4972 132.009 73.8055 134.742C72.2453 137.228 70.2481 138.35 67.7185 138.35C65.1377 138.35 62.3969 137.719 59.4838 136.404C59.6822 110.91 62.1266 79.272 66.8259 41.4753L67.0354 39.7902H65.3373H34.1657H32.7643L32.6691 41.1883C31.6559 56.0695 31.1504 73.8946 31.1504 94.6579C31.1504 115.432 31.837 135.528 33.2106 154.944L33.3092 156.339H34.7069H87.8502H89.0776L89.3205 155.136C91.1406 146.123 92.5899 134.779 93.6749 121.12L93.7948 119.61L92.2843 119.505L79.2961 118.596Z" fill="white" stroke="black" stroke-width="3"/>
<path d="M142.627 78.5427C142.034 79.2613 141.606 80.299 141.387 81.7415L141.247 82.6662L140.315 82.5877L137.202 82.3258L136.14 82.2364L136.297 81.1819L137.429 73.5846L137.556 72.732H138.418H159.324H159.513H160.464H160.521H169.701H170.877L170.688 73.8924C170.258 76.5409 170.041 79.3686 170.041 82.3772C170.041 83.6664 170.108 85.0415 170.241 86.5029C170.421 85.5258 170.564 84.7692 170.67 84.2345C170.839 83.3816 171.092 82.1813 171.428 80.6366L171.431 80.624L171.431 80.624C171.789 79.072 172.114 77.8753 172.407 77.0609L172.411 77.0498L172.411 77.0499C172.712 76.2435 173.076 75.3532 173.501 74.3799L173.502 74.3776C174.317 72.5225 175.448 71.138 176.961 70.3904L176.993 70.3746L177.026 70.3611C177.517 70.1604 178.361 70.0035 179.427 69.8608C180.437 69.6976 180.991 69.4355 181.26 69.1921L183.986 66.7231L182.885 70.2325C182.31 72.0679 181.707 73.6564 181.074 74.9903L180.89 75.3786L180.481 75.5121C179.717 75.7616 179.008 75.9109 178.378 75.9109C178.092 75.9109 177.809 75.8971 177.532 75.8693C177.061 76.7797 176.612 77.9446 176.195 79.3813C175.678 81.1614 175.289 82.7434 175.023 84.13C174.774 85.5445 174.493 87.28 174.18 89.3381C174.18 89.3384 174.18 89.3387 174.18 89.339L173.191 89.1886C171.598 99.7259 170.005 107.207 168.412 111.631L142.627 78.5427ZM142.627 78.5427C142.613 79.3944 142.605 80.0908 142.605 80.6307C142.605 86.0017 142.964 91.0306 143.686 95.7156L143.816 96.5634H144.674H151.528H152.605L152.525 95.4888C152.359 93.2782 152.276 90.7278 152.276 87.8351C152.276 85.2081 152.503 81.8567 152.961 77.7713C153.101 77.8501 153.224 77.9511 153.334 78.0725C153.601 78.3661 153.829 78.9206 153.829 79.9321C153.829 80.3375 153.792 80.7439 153.719 81.1521L153.524 82.2354L154.621 82.3259L157.796 82.5879L158.628 82.6566L158.844 81.8496C159.135 80.7624 159.406 79.5215 159.659 78.1286C159.97 83.9052 160.792 89.7893 162.123 95.7803L162.297 96.5634H163.099H168.384M66.7505 95.9224L66.9061 96.1991L67.1927 96.3355C68.825 97.1118 70.4181 97.524 71.9607 97.524C75.4943 97.524 78.4823 95.9373 80.8863 92.9106C83.2778 89.8996 84.4671 86.3587 84.4671 82.3335C84.4671 79.1314 83.6668 76.1229 82.0725 73.3243L81.905 73.0303L81.5935 72.8984C79.7606 72.1223 77.8993 71.7277 76.0163 71.7277C72.4642 71.7277 69.5033 73.056 67.2127 75.6964C64.944 78.3116 63.8242 81.5054 63.8242 85.2153C63.8242 88.8951 64.8088 92.4682 66.7505 95.9224ZM74.8056 81.3969L74.8056 81.397L74.809 81.4053C75.5728 83.255 75.9594 85.2637 75.9594 87.4421C75.9594 89.1133 75.6823 90.6014 75.1427 91.9206C74.4473 91.1931 73.8386 90.1947 73.3377 88.8826C72.6498 86.9965 72.3005 84.933 72.3005 82.6828C72.3005 81.0223 72.4907 79.5466 72.8587 78.2461C73.6316 79.0588 74.2842 80.1011 74.8056 81.3969ZM105.508 75.5121L105.917 75.3786L106.101 74.9903C106.329 74.5089 106.554 73.9943 106.775 73.4469L107.275 74.2572C107.814 75.1314 108.333 76.0884 108.829 77.1291C108.247 78.5317 107.359 79.8606 106.148 81.1152L106.143 81.1207C104.836 82.4963 103.504 83.436 102.154 83.9828L101.661 84.1824L101.551 84.7025C101.118 86.7485 100.901 88.7973 100.901 90.8478C100.901 92.8172 100.975 94.4345 101.128 95.6854L101.236 96.5634H102.121H109.446H109.854L110.146 96.2778C111.225 95.2207 112.234 94.1134 113.172 92.9561C113.269 93.8595 113.339 94.7454 113.383 95.6139L113.431 96.5634H114.382H121.675H122.675V95.5634V95.2141C122.675 87.067 121.627 79.7968 119.512 73.4173L119.285 72.732H118.563H108.126H107.054C107.346 71.9577 107.633 71.1242 107.912 70.2325L109.013 66.7231L106.287 69.1921C106.018 69.4355 105.464 69.6976 104.454 69.8608C103.388 70.0035 102.544 70.1604 102.053 70.3611L102.02 70.3746L101.988 70.3904C100.475 71.138 99.3437 72.5225 98.5286 74.3776L98.5276 74.3799C98.1029 75.3532 97.7395 76.2435 97.4384 77.0499L97.4384 77.0498L97.4344 77.0609C97.1412 77.8753 96.8162 79.072 96.4578 80.624L96.4577 80.624L96.4549 80.6366C96.1192 82.1812 95.8662 83.3816 95.6968 84.2345C95.5906 84.7692 95.4476 85.5258 95.268 86.5029C95.1346 85.0415 95.0682 83.6664 95.0682 82.3772C95.0682 79.3686 95.2849 76.5409 95.7155 73.8924L95.9041 72.732H94.7284H85.5484H84.5396L84.5485 73.7408C84.612 80.9183 85.4804 88.2652 87.1502 95.7803L87.3242 96.5634H88.1264H93.411C92.1559 102.595 90.5568 107.909 88.6195 112.509L87.8316 114.381L89.7952 113.865C91.3741 113.45 92.7204 113.014 93.8241 112.554L94.231 112.385L94.3803 111.97C96.0092 107.446 97.6132 99.8802 99.2067 89.339C99.5199 87.2804 99.8011 85.5445 100.05 84.1298C100.316 82.7432 100.705 81.1613 101.222 79.3813C101.639 77.9446 102.088 76.7797 102.559 75.8693C102.836 75.8971 103.119 75.9109 103.405 75.9109C104.035 75.9109 104.744 75.7616 105.508 75.5121ZM137.095 87.884L136.219 87.8435L136.064 88.7058C135.824 90.0394 135.471 90.7962 135.126 91.1664C134.825 91.4825 134.395 91.6816 133.716 91.6816C133.141 91.6816 132.536 91.6066 131.898 91.4507C132.001 86.7136 132.7 80.873 134.007 73.9166L134.23 72.732H133.024H123.97H123.068L122.975 73.6296C122.677 76.5265 122.53 79.9828 122.53 83.9927C122.53 88.0139 122.731 91.9063 123.133 95.6697L123.228 96.5634H124.127H139.563H140.304L140.52 95.8552C141.067 94.0619 141.495 91.8306 141.814 89.1768L141.942 88.1084L140.867 88.0587L137.095 87.884Z" stroke="black" stroke-width="2"/>
<defs>
<filter id="filter0_d" x="8.0708" y="0" width="180.313" height="200" filterUnits="userSpaceOnUse" color-interpolation-filters="sRGB">
<feFlood flood-opacity="0" result="BackgroundImageFix"/>
<feColorMatrix in="SourceAlpha" type="matrix" values="0 0 0 0 0 0 0 0 0 0 0 0 0 0 0 0 0 0 127 0"/>
<feOffset dy="4"/>
<feGaussianBlur stdDeviation="2"/>
<feColorMatrix type="matrix" values="0 0 0 0 0 0 0 0 0 0 0 0 0 0 0 0 0 0 0.25 0"/>
<feBlend mode="normal" in2="BackgroundImageFix" result="effect1_dropShadow"/>
<feBlend mode="normal" in="SourceGraphic" in2="effect1_dropShadow" result="shape"/>
</filter>
</defs>
</svg>
